<svg id="Capa_1" enable-background="new 0 0 497 497" height="512" viewBox="0 0 497 497" width="512" xmlns="http://www.w3.org/2000/svg"><g><path d="m409.799 178.189c-18.596-27.235-31.111-58.241-36.137-90.856-.791-5.868-2.529-12.059-5.39-18.503-14.979-33.702-62.272-58.429-85.938-38.893-1.467 1.21-3.67.808-4.518-.894-7.84-15.745-25.528-25.453-47.117-27.994.002 0 .004 0 .005-.001-9.829-1.684-20.517-1.283-31.277.804-40.973 7.947-72.775 40.344-72.556 75.173-2.003 35.957-15.462 71.901-35.776 101.166-30.054 38.52-55.451 68.931-55.451 107.958-.544 46.829 20.381 87.561 63.166 109.693-.011-.009-.022-.018-.033-.026 38.716 20.447 89.876 31.36 145.978 31.36 120.794 0 218.717-50.554 218.717-138.051 0-38.633-32.442-79.109-53.673-110.936z" fill="#b57f5f"/><path d="m326.197 390.649 21.368 2.63 21.722 7.214c17.076 5.648 29.742 20.12 33.079 37.794l7.393 39.162c1.917 10.155-5.871 19.551-16.205 19.551h-134.369l-19.665-11.713-13.325 11.713h-132.403c-10.334 0-12.916-14.934-10.999-25.089l10.999-32.149c3.337-17.674 16.003-32.145 33.079-37.794l34.901-6.561 80.919-9.662z" fill="#f7f9fa"/><path d="m331.205 387.85-88.51-2.1-27.888.693.008-.003-58.68 1.46-38.08 12.59c-17.07 5.65-29.74 20.12-33.07 37.8l-7.4 39.16c-1.92 10.15 5.87 19.55 16.21 19.55h.16l8.71-55.37c2.12-11.24 10.19-20.46 21.05-24.05l23.591-8.064c1.639-.56 3.45-.233 4.789.866l50.26 41.238c4.51 3.62 10.16 5.62 15.93 5.62 9.876.044 18.692-5.749 22.944-14.352.716-1.448 2.82-1.454 3.542-.009 4.31 8.613 13.129 14.406 23.054 14.362 2.9 0 5.78-.5 8.49-1.46 2.72-.96 5.28-2.38 7.55-4.2l54.77-44.03c4.62-3.71 7.68-8.78 8.93-14.27z" fill="#e9edf1"/><path d="m186.351 380.409 18.995-38.1-3.897-43.073 74.232 4.129 17.004 34.735 5.993 36.287-61.332 50.815z" fill="#f2d1a5"/><path d="m292.685 338.1-5.74-34.74-85.5-4.12-7.13 38.33c.001.001.003.001.004.002l-7.964 42.838 17.19 15.1 8.073-43.419c.464-2.495 3.109-3.941 5.452-2.966 9.548 3.974 19.087 6.735 26.706 6.735 13.699 0 33.759-8.91 48.909-17.76z" fill="#f2bb88"/><path d="m227.715.61c-43.38 4.98-91.31 40.42-91.08 78.73-2 37.03-15.46 74.05-35.77 104.2-30.06 39.67-54.83 74.06-54.83 114.26-.47 41.6 22.18 76.25 55.87 99.63-1.05-.52-2.1-1.06-3.13-1.61-42.77-22.13-73.28-59.88-72.74-106.7 0-39.03 24.77-72.41 54.83-110.93 20.31-29.27 33.77-65.21 35.77-101.17-.26-43.05 64.03-82.39 111.08-76.41z" fill="#9f6e50"/><path d="m132.807 178.192h-10.858c-10.216 0-18.498 8.282-18.498 18.498 0 22.796 16.831 41.661 38.744 44.845h204.114c21.913-3.185 38.744-22.05 38.744-44.845 0-10.216-8.282-18.498-18.498-18.498h-10.858z" fill="#f2bb88"/><path d="m259.185 386.14-9.632 49.02 9.632 20.58v41.26h-32.99v-41.02l6.811-21.331-6.811-48.489 16.5-.41z" fill="#5595a2"/><path d="m259.185 386.14v69.6c-6.22-2.24-11.41-6.87-14.41-12.86-.73-1.45-2.83-1.44-3.55.01-3.07 6.21-8.52 10.96-15.03 13.09v-69.82l16.5-.41z" fill="#488089"/><path d="m327.981 394.303c2.896-2.328 3.978-6.247 2.687-9.73l-10.35-27.927c-1.952-5.267-8.093-7.614-13.061-4.991l-64.566 34.091 16.957 48.696c1.962 5.636 8.913 7.629 13.564 3.89z" fill="#f7f9fa"/><g><path d="m175.233 471.911h-45.54c-4.142 0-7.5-3.357-7.5-7.5s3.358-7.5 7.5-7.5h45.54c4.142 0 7.5 3.357 7.5 7.5s-3.358 7.5-7.5 7.5z" fill="#ff8086"/></g><path d="m351.428 180.606c-.089 4.528 5.066 6.616 4.708 11.086-2.505 31.292-11.471 60.902-25.192 85.115-20.388 35.981-72.03 60.05-87.165 60.05-15.134 0-66.182-24.069-86.032-60.05-13.362-24.213-21.992-53.83-24.399-85.124-.344-4.471 3.999-6.293 3.914-10.821 13.572-.615 25.527-17.789 29.286-39.641.53-3.111.91-6.306 1.115-9.546.107-1.694 1.619-2.938 3.301-2.712 16.354 2.199 30.419-.858 49.021-8.101 22.258-8.666 38.007-19.1 48.511-34.979 4.922-6.968 8.894 11.183 13.277 16.851 8.484 15.867 19.969 29.842 32.048 36.423 2.789 1.39 7.879.987 8.548 4.684 1.434 17.158 19.54 36.766 27.83 36.766h1.229z" fill="#f2d1a5"/><path d="m356.805 178.19c-.09 4.61-.32 9.19-.69 13.74-1.677-.756-3.242-1.457-4.648-2.082-8.72-3.881-16.437-9.725-22.448-17.139-.035-.043-.069-.086-.104-.128-3.375-4.195-10.576-14.09-13.563-25.536-.142-.543-.522-.985-1.039-1.205-18.001-7.635-32.619-26.174-42.437-45.354-.573-1.119-2.06-1.33-2.929-.423-11.86 12.386-27.352 22.584-44.991 29.457-14.92 5.81-30.71 8.88-45.67 8.88-1.057 0-2.114-.013-3.168-.043-.908-.025-1.697.611-1.849 1.507l-.003.016c-.844 4.905-2 9.556-3.428 13.904-5.726 17.433-19.337 31.154-36.508 37.624l-.004.001c-.33-4.38-.54-8.79-.62-13.23 13.57-.62 24.97-18.48 28.73-40.34.53-3.11.91-6.3 1.12-9.54.11-1.7 1.62-2.94 3.3-2.71 16.35 2.19 35.15-.01 53.75-7.26 22.26-8.66 39.95-22.87 50.45-38.75 5.001-6.908 10.719 14.593 15.111 20.229 8.489 15.87 20.289 27.97 32.369 34.55 2.794 1.391 7.878.981 8.55 4.68 1.43 17.16 21.2 39.15 29.49 39.15h1.229z" fill="#f2bb88"/><g><path d="m244.755 231.672c-3.526 0-7.053-.819-10.268-2.458-3.69-1.881-5.157-6.396-3.276-10.088 1.881-3.689 6.398-5.159 10.088-3.275 2.164 1.102 4.748 1.102 6.912 0 3.69-1.884 8.207-.415 10.088 3.275 1.881 3.691.414 8.207-3.276 10.088-3.215 1.639-6.741 2.458-10.268 2.458z" fill="#f2bb88"/></g><path d="m216.63 258.195h56.251c1.86 0 3.208 1.78 2.688 3.565-.458 1.572-1.248 3.551-2.382 5.697-4.3 8.137-28.431 14.256-28.431 14.256s-23.921-5.88-28.283-13.978c-1.214-2.253-2.053-4.335-2.531-5.975-.521-1.786.828-3.565 2.688-3.565z" fill="#ff8086"/><path d="m273.755 266.32c-4.01 8.25-13.41 19.83-29 19.83s-24.99-11.58-29-19.83c7.62 3.42 17.24 5.83 29 5.83s21.38-2.41 29-5.83z" fill="#e5646e"/><g><path d="m287.678 209.535c-4.142 0-7.5-3.357-7.5-7.5v-12.087c0-4.143 3.358-7.5 7.5-7.5s7.5 3.357 7.5 7.5v12.087c0 4.143-3.358 7.5-7.5 7.5z" fill="#b57f5f"/></g><g><path d="m201.833 209.535c-4.142 0-7.5-3.357-7.5-7.5v-12.087c0-4.143 3.358-7.5 7.5-7.5s7.5 3.357 7.5 7.5v12.087c0 4.143-3.358 7.5-7.5 7.5z" fill="#b57f5f"/></g><g><path d="m186.541 171.277c-1.919 0-3.838-.732-5.303-2.196-2.929-2.929-2.929-7.678 0-10.606 5.501-5.502 12.815-8.532 20.596-8.532s15.095 3.03 20.596 8.532c2.929 2.929 2.929 7.678 0 10.606-2.929 2.929-7.678 2.928-10.606-.001-2.668-2.668-6.216-4.138-9.989-4.138s-7.32 1.47-9.988 4.138c-1.467 1.465-3.387 2.197-5.306 2.197z" fill="#b57f5f"/></g><g><path d="m302.97 171.277c-1.919 0-3.839-.732-5.304-2.197-2.668-2.668-6.215-4.138-9.988-4.138s-7.321 1.47-9.989 4.138c-2.929 2.93-7.678 2.929-10.606.001-2.929-2.929-2.929-7.678 0-10.606 5.501-5.502 12.815-8.532 20.596-8.532s15.094 3.03 20.596 8.532c2.929 2.929 2.928 7.678 0 10.606-1.467 1.464-3.387 2.196-5.305 2.196z" fill="#b57f5f"/></g><path d="m399.985 380.409h41.083v52.091l-7.126 6.204 7.126 8.796v34.5l-1.87 8.415c0 2.761-2.239 5-5 5l-30.263-.617c-2.761 0-5-2.239-5-5z" fill="#5595a2"/><path d="m441.065 482v10c0 2.76-2.24 5-5 5h-34.63c-2.76 0-5-2.24-5-5v-44.5l2.965-6.127-2.965-8.873v-52.09h15v96.59c0 2.76 2.24 5 5 5z" fill="#488089"/><path d="m461.107 324.855c0 7.809-2.113 15.125-5.8 21.406-7.355 12.534-19.229 15.957-34.812 15.957-23.392 0-37.447-12.497-37.447-35.889 0-16.129 2.363-31.627 15.629-38.78 5.974-3.221 12.81-5.05 20.074-5.05 23.393.001 42.356 18.964 42.356 42.356z" fill="#5595a2"/><path d="m455.305 346.26c-7.35 12.54-20.97 20.95-36.55 20.95-23.4 0-42.36-18.96-42.36-42.35 0-17.9 11.1-33.21 26.8-39.41-3.69 6.28-5.8 13.6-5.8 21.41 0 23.39 18.96 42.35 42.36 42.35 5.49 0 10.73-1.04 15.55-2.95z" fill="#488089"/><path d="m457.939 358.926h-78.374c-5.523 0-5.878 8.413-5.878 13.936l-2.292 25.787c0 5.523 4.477 10 10 10l72.718-1.064c5.523 0 13.826-1.062 13.826-6.585v-32.074c0-5.523-4.478-10-10-10z" fill="#f7e365"/><path d="m467.935 398v3c0 5.523-4.477 10-10 10h-78.37c-5.523 0-10-4.477-10-10v-32.07c0-5.53 4.48-10 10-10h3v31.07c0 4.418 3.582 8 8 8z" fill="#f4d242"/><g><path d="m463.472 332.355h-57.538l-29.54-2.473c-4.142 0-4.921-.881-4.921-5.023s-1.759-4.146 2.383-4.146l24.848-3.358h64.768c4.142 0 7.5 3.357 7.5 7.5s-3.357 7.5-7.5 7.5z" fill="#f7f9fa"/></g><g><path d="m405.935 332.36h-31.9c-4.15 0-7.5-3.36-7.5-7.5 0-4.15 3.35-7.5 7.5-7.5h24.67c1.41 5.51 3.9 10.59 7.23 15z" fill="#e9edf1"/></g><g><path d="m433.781 392.463h-30.059c-4.142 0-7.5-3.357-7.5-7.5s3.358-7.5 7.5-7.5h30.059c4.142 0 7.5 3.357 7.5 7.5s-3.358 7.5-7.5 7.5z" fill="#f4d242"/></g><g><path d="m441.065 432.5v15h-44.63l2.964-6.127-2.964-8.873z" fill="#f7e365"/></g><g><path d="m396.435 432.5h15v15h-15z" fill="#f4d242"/></g><path d="m213.004 438.369-53.677-44.044c-2.838-2.281-3.898-6.122-2.633-9.537l10.144-27.37c1.913-5.162 7.932-7.462 12.8-4.892l63.053 33.218-16.393 48.811c-1.924 5.524-8.736 7.478-13.294 3.814z" fill="#f7f9fa"/></g></svg>