<?xml version="1.0" encoding="iso-8859-1"?>
<!-- Generator: Adobe Illustrator 18.1.1, SVG Export Plug-In . SVG Version: 6.00 Build 0)  -->
<svg version="1.1" id="Capa_1" xmlns="http://www.w3.org/2000/svg" xmlns:xlink="http://www.w3.org/1999/xlink" x="0px" y="0px"
	 viewBox="0 0 41.939 41.939" style="enable-background:new 0 0 41.939 41.939;" xml:space="preserve">
<g>
	<g>
		<rect x="0.001" y="22.189" width="41.938" height="3.188"/>
		<rect x="0.001" y="30.805" width="41.938" height="4.506"/>
		<path d="M41.938,28.336c-2.735-2.672-7.434,0.791-10.662,0.318c-2.473-0.361-4.991-2.33-7.506-0.871
			c-0.881,0.512-1.772,1.197-2.8,1.197c-1.029,0-1.924-0.688-2.802-1.197c-2.516-1.457-5.034,0.512-7.507,0.871
			C7.432,29.125,2.738,25.664,0,28.336v1.362h41.939L41.938,28.336L41.938,28.336z"/>
		<path d="M20.942,6.628c-10.675,0-19.466,6.21-20.761,14.23h41.521C40.407,12.838,31.615,6.628,20.942,6.628z"/>
	</g>
</g>
<g>
</g>
<g>
</g>
<g>
</g>
<g>
</g>
<g>
</g>
<g>
</g>
<g>
</g>
<g>
</g>
<g>
</g>
<g>
</g>
<g>
</g>
<g>
</g>
<g>
</g>
<g>
</g>
<g>
</g>
</svg>
