<?xml version="1.0" encoding="iso-8859-1"?>
<!-- Generator: Adobe Illustrator 19.0.0, SVG Export Plug-In . SVG Version: 6.00 Build 0)  -->
<svg version="1.1" id="Capa_1" xmlns="http://www.w3.org/2000/svg" xmlns:xlink="http://www.w3.org/1999/xlink" x="0px" y="0px"
	 viewBox="0 0 512 512" style="enable-background:new 0 0 512 512;" xml:space="preserve">
<rect x="83.2" y="43.733" style="fill:#F05540;" width="58.667" height="110.933"/>
<rect x="48" y="215.467" style="fill:#FFD15C;" width="417.067" height="296.533"/>
<rect x="48" y="215.467" style="fill:#F7B64C;" width="417.067" height="33.067"/>
<polygon style="fill:#55C0EB;" points="183.467,277.333 328.533,277.333 328.533,423.467 183.467,423.467 "/>
<path style="fill:#E8EAE9;" d="M332.8,427.733H179.2V273.067h153.6L332.8,427.733z M187.733,419.2H323.2V281.6H187.733V419.2z"/>
<rect x="183.467" y="345.6" style="fill:#E8EAE9;" width="145.067" height="8.533"/>
<rect x="251.733" y="277.333" style="fill:#E8EAE9;" width="8.533" height="146.133"/>
<rect x="171.733" y="419.2" style="fill:#415A6B;" width="167.467" height="18.133"/>
<rect x="193.067" y="437.333" style="fill:#344A5E;" width="125.867" height="18.133"/>
<g>
	<polygon style="fill:#F3705A;" points="512,215.467 0,215.467 256,0 	"/>
	<rect x="67.2" y="9.6" style="fill:#F3705A;" width="90.667" height="49.067"/>
</g>
<g>
</g>
<g>
</g>
<g>
</g>
<g>
</g>
<g>
</g>
<g>
</g>
<g>
</g>
<g>
</g>
<g>
</g>
<g>
</g>
<g>
</g>
<g>
</g>
<g>
</g>
<g>
</g>
<g>
</g>
</svg>
