<svg id="Capa_1" enable-background="new 0 0 511.999 511.999" height="512" viewBox="0 0 511.999 511.999" width="512" xmlns="http://www.w3.org/2000/svg"><g><g><g><path d="m379.51 37.72v62.56h-123.51l-11-14.995 11-15.005h28.15v-32.56h30v32.56h35.36v-32.56z" fill="#edbe00"/><path d="m241.85 70.28c-6.56-23.48-28.15-40.75-53.7-40.75-30.74 0-55.75 25.01-55.75 55.75 0 30.75 25.01 55.76 55.75 55.76 25.55 0 47.14-17.27 53.7-40.76h14.15v-30zm-53.7 40.76c-14.2 0-25.75-11.56-25.75-25.76s11.55-25.75 25.75-25.75 25.75 11.55 25.75 25.75-11.55 25.76-25.75 25.76z" fill="#fc0"/></g></g><g><path d="m509.08 135.57-160.01 239.64h-93.07l-17.894-21.229 17.894-20.971h61.33c55.592 0 81.299-71.446 41.28-108.73l82.38-117.92c8.25-12.44 19.71-22.23 33.98-22.23 5.06 0 10.19 1.04 15.1 3.23 18.39 8.22 26.84 29.64 19.01 48.21z" fill="#ffbda9"/><path d="m348.62 270.47c0 17.192-13.705 32.54-31.29 32.54h-61.33l-23-32.535 23-32.535h48.779c9.996 0 20.779-.819 29.421 5.187 8.771 6.095 13.298 17.031 14.42 27.343z" fill="#ffbda9"/><path d="m160.31 303.01v30h95.69v42.2h-88.9v107.26h-167.1v-159.5c0-65.83 54.95-119.19 120.78-119.19 14.102 0 28.281-.57 42.216 2.021 22.665 4.215 45.519 15.338 61.574 32.139h31.43v65.07z" fill="#ffccbd"/></g></g></svg>