<svg id="Layer_1" height="512" viewBox="0 0 512 512" width="512" xmlns="http://www.w3.org/2000/svg" data-name="Layer 1"><path d="m360.85 109h-11.15l-270.7 345.73v9.7a31.411 31.411 0 0 0 31.39 31.57h250.46a31.215 31.215 0 0 0 31.15-31.57v-324.09a31.025 31.025 0 0 0 -31.15-31.34z" fill="#a9b6d8"/><path d="m281.01 16h-221.31a31.682 31.682 0 0 0 -31.7 31.57v380.6a31.911 31.911 0 0 0 31.7 31.83h262.52a31.974 31.974 0 0 0 31.78-31.83v-341.92z" fill="#d2e0f7"/><path d="m353.7 86.09v.16h-72.69v-70.25z" fill="#a9b6d8"/><path d="m455.945 239.89a28.229 28.229 0 0 0 -28.092 28.2l-.093 27.91h.06l56.055-.15.125-27.91v-.04a28.074 28.074 0 0 0 -28.055-28.01z" fill="#53d8d8"/><path d="m483.81 295.63-.32 144.35-28.02-.03v-.01l.37-144.35z" fill="#c16378"/><path d="m427.44 439.91 27.95 56.09 28.1-56.02z" fill="#c79a83"/><path d="m455.84 295.59-.37 144.35v.01l-28.03-.04.32-144.35h.06z" fill="#e87187"/><path d="m176.09 87.51a90.564 90.564 0 1 1 -86.73 64.24l.21-.62 17.8 5.94 68.99 22.99-23.68-71.04-5.59-16.76a90.1 90.1 0 0 1 29-4.75z" fill="#4ca987"/><path d="m152.68 109.02 23.68 71.04-68.99-22.99-17.8-5.94-16.21-5.4a68.677 68.677 0 0 1 68.66-68.67l5.07 15.2z" fill="#f3ce7d"/><path d="m58 428.17v-380.6a31.682 31.682 0 0 1 31.7-31.57h-30a31.682 31.682 0 0 0 -31.7 31.57v380.6a31.911 31.911 0 0 0 31.7 31.83h30a31.911 31.911 0 0 1 -31.7-31.83z" fill="#acb9cc"/><g fill="#8190a3"><path d="m217.617 323.5h-124.957a6 6 0 0 1 0-12h124.957a6 6 0 1 1 0 12z"/><path d="m289.233 361.582h-196.573a6 6 0 1 1 0-12h196.573a6 6 0 1 1 0 12z"/><path d="m261.023 398.938h-168.363a6 6 0 1 1 0-12h168.363a6 6 0 0 1 0 12z"/></g><path d="m54 56.878a6 6 0 0 1 -6-6v-4.3a6 6 0 0 1 12 0v4.3a6 6 0 0 1 -6 6z" fill="#f4f8fc"/><path d="m54 149.878a6 6 0 0 1 -6-6v-72a6 6 0 0 1 12 0v72a6 6 0 0 1 -6 6z" fill="#f4f8fc"/></svg>